<?xml version="1.0" encoding="UTF-8" standalone="no"?>
<!DOCTYPE svg PUBLIC "-//W3C//DTD SVG 1.1//EN"
 "http://www.w3.org/Graphics/SVG/1.1/DTD/svg11.dtd">
<!-- Generated by graphviz version 2.40.1 (20161225.0304)
 -->
<!-- Title: dependencies Pages: 1 -->
<svg width="504pt" height="284pt"
 viewBox="0.00 0.00 504.00 284.00" xmlns="http://www.w3.org/2000/svg" xmlns:xlink="http://www.w3.org/1999/xlink">
<g id="graph0" class="graph" transform="scale(1 1) rotate(0) translate(4 280)">
<title>dependencies</title>
<polygon fill="#ffffff" stroke="transparent" points="-4,4 -4,-280 500,-280 500,4 -4,4"/>
<text text-anchor="start" x="227.0091" y="-42.4" font-family="sans-serif" font-weight="bold" font-size="14.00" fill="#000000">Legend</text>
<polygon fill="#ffffb3" stroke="transparent" points="14,-10 14,-30 34,-30 34,-10 14,-10"/>
<text text-anchor="start" x="37.629" y="-15.4" font-family="sans-serif" font-size="14.00" fill="#000000"> &#160;Declarations</text>
<polygon fill="#8dd3c7" stroke="transparent" points="127,-10 127,-30 147,-30 147,-10 127,-10"/>
<text text-anchor="start" x="150.7251" y="-15.4" font-family="sans-serif" font-size="14.00" fill="#000000"> &#160;Module</text>
<polygon fill="#80b1d3" stroke="transparent" points="213,-10 213,-30 233,-30 233,-10 213,-10"/>
<text text-anchor="start" x="236.7812" y="-15.4" font-family="sans-serif" font-size="14.00" fill="#000000"> &#160;Bootstrap</text>
<polygon fill="#fdb462" stroke="transparent" points="310,-10 310,-30 330,-30 330,-10 310,-10"/>
<text text-anchor="start" x="333.6732" y="-15.4" font-family="sans-serif" font-size="14.00" fill="#000000"> &#160;Providers</text>
<polygon fill="#fb8072" stroke="transparent" points="406,-10 406,-30 426,-30 426,-10 406,-10"/>
<text text-anchor="start" x="429.7258" y="-15.4" font-family="sans-serif" font-size="14.00" fill="#000000"> &#160;Exports</text>
<g id="clust1" class="cluster">
<title>cluster_NgLoadingIndicatorModule</title>
<polygon fill="none" stroke="#000000" stroke-dasharray="1,5" points="58,-70 58,-268 438,-268 438,-70 58,-70"/>
</g>
<g id="clust2" class="cluster">
<title>cluster_NgLoadingIndicatorModule_declarations</title>
<polygon fill="none" stroke="#000000" points="236,-78 236,-130 430,-130 430,-78 236,-78"/>
</g>
<g id="clust4" class="cluster">
<title>cluster_NgLoadingIndicatorModule_imports</title>
<polygon fill="none" stroke="#000000" points="66,-78 66,-130 228,-130 228,-78 66,-78"/>
</g>
<g id="clust5" class="cluster">
<title>cluster_NgLoadingIndicatorModule_exports</title>
<polygon fill="none" stroke="#000000" points="149,-208 149,-260 347,-260 347,-208 149,-208"/>
</g>
<!-- LoadingIndicatorComponent -->
<g id="node1" class="node">
<title>LoadingIndicatorComponent</title>
<polygon fill="#ffffb3" stroke="#000000" points="422.0224,-122 243.9776,-122 243.9776,-86 422.0224,-86 422.0224,-122"/>
<text text-anchor="middle" x="333" y="-99.8" font-family="Times,serif" font-size="14.00" fill="#000000">LoadingIndicatorComponent</text>
</g>
<!-- NgLoadingIndicatorModule -->
<g id="node2" class="node">
<title>NgLoadingIndicatorModule</title>
<polygon fill="#8dd3c7" stroke="#000000" points="334.8459,-187 331.8459,-191 310.8459,-191 307.8459,-187 161.1541,-187 161.1541,-151 334.8459,-151 334.8459,-187"/>
<text text-anchor="middle" x="248" y="-164.8" font-family="Times,serif" font-size="14.00" fill="#000000">NgLoadingIndicatorModule</text>
</g>
<!-- LoadingIndicatorComponent&#45;&gt;NgLoadingIndicatorModule -->
<g id="edge1" class="edge">
<title>LoadingIndicatorComponent&#45;&gt;NgLoadingIndicatorModule</title>
<path fill="none" stroke="#000000" d="M289.331,-122.1061C289.331,-122.1061 289.331,-140.991 289.331,-140.991"/>
<polygon fill="#000000" stroke="#000000" points="285.8311,-140.9909 289.331,-150.991 292.8311,-140.991 285.8311,-140.9909"/>
</g>
<!-- LoadingIndicatorComponent  -->
<g id="node4" class="node">
<title>LoadingIndicatorComponent </title>
<polygon fill="#fb8072" stroke="#000000" points="339.0218,-252 156.9782,-252 156.9782,-216 339.0218,-216 339.0218,-252"/>
<text text-anchor="middle" x="248" y="-229.8" font-family="Times,serif" font-size="14.00" fill="#000000">LoadingIndicatorComponent </text>
</g>
<!-- NgLoadingIndicatorModule&#45;&gt;LoadingIndicatorComponent  -->
<g id="edge3" class="edge">
<title>NgLoadingIndicatorModule&#45;&gt;LoadingIndicatorComponent </title>
<path fill="none" stroke="#000000" stroke-dasharray="5,2" d="M248,-187.1061C248,-187.1061 248,-205.991 248,-205.991"/>
<polygon fill="#000000" stroke="#000000" points="244.5001,-205.9909 248,-215.991 251.5001,-205.991 244.5001,-205.9909"/>
</g>
<!-- ModalManagerModule -->
<g id="node3" class="node">
<title>ModalManagerModule</title>
<polygon fill="#8dd3c7" stroke="#000000" points="219.8487,-122 216.8487,-126 195.8487,-126 192.8487,-122 74.1513,-122 74.1513,-86 219.8487,-86 219.8487,-122"/>
<text text-anchor="middle" x="147" y="-99.8" font-family="Times,serif" font-size="14.00" fill="#000000">ModalManagerModule</text>
</g>
<!-- ModalManagerModule&#45;&gt;NgLoadingIndicatorModule -->
<g id="edge2" class="edge">
<title>ModalManagerModule&#45;&gt;NgLoadingIndicatorModule</title>
<path fill="none" stroke="#000000" d="M190.5007,-122.1061C190.5007,-122.1061 190.5007,-140.991 190.5007,-140.991"/>
<polygon fill="#000000" stroke="#000000" points="187.0008,-140.9909 190.5007,-150.991 194.0008,-140.991 187.0008,-140.9909"/>
</g>
</g>
</svg>
